<svg width="626" height="329" viewBox="0 0 626 329" fill="none" xmlns="http://www.w3.org/2000/svg">
<path d="M271.589 181.19L270.057 190.622C270.057 190.622 266.365 190.109 265.187 189.714C264.755 189.556 264.087 188.017 263.419 186.084C259.884 188.294 256.467 190.503 253.246 192.674C253.285 193.384 253.285 194.094 253.325 194.726C253.364 195.752 253.403 196.62 253.442 197.291C253.757 197.291 254.032 197.251 254.346 197.251C256.035 197.251 257.881 197.488 259.334 198.514C260.473 199.304 262.005 200.645 263.38 201.948L268.054 203.013L271.589 181.19ZM508.557 111.934C507.81 111.934 507.025 111.934 506.239 111.934V133.756V134.388C506.239 139.952 501.761 144.49 496.184 144.49H351.639C330.664 152.106 311.261 160.472 293.939 169.154H333.492C334.396 169.154 335.063 169.943 334.906 170.851L327.993 210.906L327.718 212.523C327.6 213.234 327.011 213.707 326.304 213.707H311.693L315.778 216.075L334.945 245.435C334.945 245.435 342.016 247.961 349.832 250.999C352.817 252.183 355.881 253.407 358.709 254.63C373.949 250.999 389.778 246.54 405.922 241.292C503.293 209.603 574.741 160.67 565.471 131.941C561.151 118.524 539.94 111.934 508.557 111.934Z" fill="#F2F6FB"/>
<path d="M134.742 167.892C130.814 168.997 126.808 170.22 122.802 171.522C74.0962 187.386 38.1171 211.064 42.4377 224.481C44.3624 230.44 53.9463 233.36 68.283 233.36C77.3956 233.36 88.4329 232.176 100.688 229.848C104.184 216.549 109.761 203.802 115.614 194.331C124.491 180.007 129.832 173.377 134.742 167.892Z" fill="#F2F6FB"/>
<path d="M523.798 221.442C510.286 221.442 492.375 224.559 473.364 230.716C436.285 242.791 409.261 261.97 412.993 273.611C414.839 279.294 423.637 282.096 436.521 282.096C450.032 282.096 467.943 278.978 486.954 272.822C524.033 260.747 551.057 241.568 547.325 229.926C545.479 224.283 536.642 221.442 523.798 221.442Z" fill="#F2F6FB"/>
<path d="M77.3174 313.861C77.3174 313.861 64.9446 318.084 58.8172 308.218C52.729 298.353 59.0921 296.024 48.919 292.473C38.7459 288.921 36.2713 286.672 34.2288 279.568C32.1863 272.505 21.5811 274.123 17.5354 265.717C13.4897 257.312 19.4994 259.995 11.3687 248.63C3.19877 237.265 -1.94672 230.635 1.98113 227.872C5.86971 225.11 13.9611 225.031 19.5386 233.555C25.1162 242.079 29.8296 246.814 36.507 246.578C43.1843 246.301 43.8128 261.889 51.9435 261.573C60.0741 261.258 66.7515 265.204 69.501 272.86C72.2505 280.555 82.6593 278.542 87.8048 286.79C92.9502 295.077 95.6605 304.154 95.6605 304.154L77.3174 313.861Z" fill="#2C8443"/>
<path d="M18.5566 244.37C18.5566 244.37 18.8316 244.686 19.4208 245.317C22.9166 249.263 36.9783 264.812 54.1823 280.952C74.1358 299.618 88.6296 307.865 88.6296 307.865L86.3121 309.089C86.3121 309.089 76.0212 303.524 56.3033 284.977C36.5855 266.43 18.5566 244.37 18.5566 244.37Z" fill="#1D5B45"/>
<path d="M75.9041 303.999C75.9041 303.999 59.0929 303.131 56.4612 288.411C53.8296 273.692 62.5101 273.968 52.0228 264.852C41.5354 255.736 39.65 251.869 40.5142 242.437C41.4176 233.006 27.9843 229.888 27.1202 217.931C26.256 205.974 32.1871 212.012 27.7879 194.569C23.3887 177.088 20.3643 166.709 26.3346 165.249C32.3049 163.789 42.0067 167.577 44.6777 180.402C47.3093 193.228 50.6873 201.16 58.818 204.04C66.9486 206.921 60.3105 225.824 70.2087 229.336C80.1069 232.809 86.2344 240.741 85.8809 251.198C85.5274 261.695 98.9606 264.26 101.199 276.612C103.438 288.964 102.417 301.118 102.417 301.118L75.9041 303.999Z" fill="#6EAF45"/>
<path d="M38.4316 192.871C38.4316 192.871 38.628 193.424 38.9815 194.41C41.3383 200.803 50.7651 226.099 63.727 253.604C78.7707 285.45 92.204 302.222 92.204 302.222L88.8653 302.577C88.8653 302.577 79.1635 291.054 64.3555 259.405C49.5475 227.796 38.4316 192.871 38.4316 192.871Z" fill="#2C8443"/>
<path d="M104.969 300.841C104.969 300.841 91.1434 298.039 93.5002 288.41C95.8569 278.781 95.6605 271.283 90.5543 265.956C85.4481 260.629 81.8737 252.973 84.7018 243.541C87.4905 234.149 86.6657 232.255 82.4629 222.705C78.2601 213.155 73.3503 198.672 84.8589 195.555C96.3675 192.437 99.0777 217.851 104.42 224.244C109.761 230.637 121.938 233.163 123.548 245.041C125.159 256.919 121.231 261.023 132.032 267.061C142.834 273.138 139.574 292.475 136.432 297.408L104.969 300.841Z" fill="#2C8443"/>
<path d="M93.6172 218.638C93.6172 218.638 107.679 269.19 113.414 281.186C119.148 293.144 122.094 298.984 122.094 298.984L118.677 299.339C118.677 299.379 95.7382 239.869 93.6172 218.638Z" fill="#1D5B45"/>
<path d="M506.278 10.2782V134.388C506.278 139.952 501.8 144.49 496.223 144.49H299.633C294.095 144.49 289.578 139.991 289.578 134.388V10.2782C289.578 4.71397 294.056 0.175781 299.633 0.175781H496.223C501.761 0.215244 506.278 4.71397 506.278 10.2782Z" fill="#E1E6F4"/>
<path d="M506.278 10.2782V20.3806H289.617V10.2782C289.617 5.81892 292.445 2.06999 296.452 0.728269C297.473 0.373106 298.533 0.175781 299.672 0.175781H496.262C501.761 0.215244 506.278 4.71397 506.278 10.2782Z" fill="#14A800"/>
<path d="M297.473 27.9545V137.029C297.473 138.41 298.573 139.554 299.987 139.554H395.395C396.77 139.554 397.909 138.449 397.909 137.029V136.279C397.909 134.898 399.048 133.753 400.422 133.753H506.239V134.385C506.239 139.949 501.761 144.487 496.184 144.487H299.594C294.056 144.487 289.539 139.988 289.539 134.385V21.4037C290.01 20.7723 290.717 20.3777 291.542 20.3777H506.2V25.4289H299.948C298.612 25.4289 297.473 26.5338 297.473 27.9545Z" fill="#C3C9E0"/>
<path d="M495.239 0.730225H299.803V15.8386H506.239V11.7302C506.239 5.65509 501.314 0.730225 495.239 0.730225Z" fill="#3C8224"/>
<path d="M439.976 3.6084H330.035C328.896 3.6084 327.953 4.55549 327.953 5.69991C327.953 6.84432 328.896 7.79141 330.035 7.79141H439.976C441.115 7.79141 442.057 6.84432 442.057 5.69991C442.057 4.55549 441.115 3.6084 439.976 3.6084Z" fill="white"/>
<path d="M482.986 3.09204H451.485C450.267 3.09204 449.246 4.11806 449.246 5.3414V5.53871C449.246 6.80151 450.267 7.78807 451.485 7.78807H482.986C484.204 7.78807 485.225 6.76205 485.225 5.53871V5.3414C485.225 4.0786 484.204 3.09204 482.986 3.09204Z" fill="white"/>
<path d="M443.8 70.9993H345.525C343.797 70.9993 342.422 69.6181 342.422 67.8818V58.5291C342.422 56.7928 343.797 55.4116 345.525 55.4116H443.8C445.528 55.4116 446.903 56.7928 446.903 58.5291V67.8818C446.942 69.5786 445.528 70.9993 443.8 70.9993Z" fill="white"/>
<path d="M625.999 311.219C625.999 320.966 496.655 328.859 337.066 328.859C177.516 328.859 48.1328 320.966 48.1328 311.219C48.1328 301.472 177.477 293.54 337.066 293.54C496.655 293.58 625.999 301.472 625.999 311.219Z" fill="#E1E6F4"/>
<path d="M391.898 306.839C391.898 313.034 330.467 318.085 254.659 318.085C178.852 318.085 117.42 313.034 117.42 306.839C117.42 300.643 178.852 295.592 254.659 295.592C330.428 295.592 391.898 300.643 391.898 306.839Z" fill="#9EA9CC"/>
<path d="M565.472 303.765C565.472 306.606 536.249 308.934 500.191 308.934C464.133 308.934 434.91 306.645 434.91 303.765C434.91 300.923 464.133 298.595 500.191 298.595C536.249 298.595 565.472 300.923 565.472 303.765Z" fill="#9EA9CC"/>
<path d="M366.407 284.185C362.047 303.758 336.241 309.401 276.342 310.506C216.442 311.572 152.928 308.691 118.128 293.577C83.3267 278.423 98.4097 222.189 115.614 194.368C132.818 166.547 136.785 167.81 150.061 149.894C158.231 138.844 165.026 134.424 171.271 134.03C175.16 133.793 178.774 135.135 182.348 137.463C191.657 143.501 216.677 164.574 216.677 164.574C216.677 164.574 294.999 238.803 327.993 247.84C345.629 252.654 356.627 257.113 362.401 263.23C367.389 268.518 368.45 275.069 366.407 284.185Z" fill="#FFC655"/>
<path d="M212.867 247.368C212.592 247.368 212.317 247.408 212.081 247.447C210.549 247.724 206.7 248.237 202.183 248.75C208.35 250.249 214.909 251.315 221.39 252.143C222.137 250.644 216.323 247.368 212.867 247.368ZM197.195 165.444C190.949 167.891 178.145 177.007 168.129 210.826C162.473 229.966 175.474 240.502 194.052 246.461C196.527 246.027 198.962 245.632 200.965 245.435C209.567 244.527 197.745 244.527 186.275 236.99C174.806 229.413 180.187 213.746 180.187 213.746C183.408 228.348 187.729 226.927 192.756 229.887C193.503 230.321 194.052 230.518 194.445 230.518C196.763 230.518 194.21 223.336 196.37 210.866C197.155 206.288 198.923 201.592 201.005 197.291C201.044 196.265 201.24 194.923 201.358 193.344C201.437 192.437 201.437 191.174 201.437 189.872C201.437 186.162 201.24 181.703 201.24 181.229C201.24 181.19 201.24 181.19 201.24 181.19C201.24 181.19 201.162 181.15 200.533 180.953C199.826 180.716 199.473 180.835 198.962 178.625C198.766 177.717 198.02 172.39 197.195 165.444Z" fill="#FFAA56"/>
<path d="M366.407 284.188C362.047 303.761 336.241 309.404 276.342 310.509C216.442 311.574 152.928 308.694 118.128 293.58C83.3267 278.426 98.4097 222.192 115.614 194.371C132.818 166.55 136.785 167.813 150.061 149.897C158.231 138.847 165.026 134.427 171.271 134.033C164.044 139.005 151.554 149.107 147.547 162.406C141.812 181.506 132.739 192.911 118.481 205.657C104.262 218.404 103.045 257.55 115.614 273.414C128.183 289.278 167.618 297.565 218.209 302.617C268.8 307.668 353.485 304.629 358.669 284.898C360.633 277.4 361.772 269.784 362.401 263.233C367.389 268.521 368.45 275.072 366.407 284.188Z" fill="#FF8A57"/>
<path d="M180.189 213.747C180.189 213.747 174.808 229.414 186.277 236.991C197.746 244.567 209.569 244.528 200.967 245.436C192.365 246.343 175.515 250.289 182.663 250.289C189.812 250.289 208.194 248.119 212.083 247.409C215.972 246.698 225.006 252.105 219.978 252.815C214.95 253.525 212.79 259.681 212.79 259.681C212.79 259.681 218.957 252.618 232.194 255.972C245.43 259.326 243.309 256.761 250.812 262.365C258.314 267.969 262.988 270.139 257.96 264.891C252.933 259.681 248.651 256.051 250.812 257.866C251.715 258.655 258 258.616 266.091 258.577C276.932 258.537 291.072 258.498 300.185 260.392C316.093 263.667 332.59 279.294 332.59 279.294L315.739 256.446C315.739 256.446 207.055 233.202 202.735 222.35C198.414 211.498 211.337 180.401 211.337 180.401C211.337 180.401 198.846 196.226 196.293 210.866C193.74 225.468 197.707 232.847 192.679 229.887C187.73 226.888 183.41 228.309 180.189 213.747Z" fill="#FF8A57"/>
<path d="M122.409 225.113C122.409 225.113 101.827 256.801 144.012 275.782C186.197 294.764 215.538 292.357 216.56 290.936C217.581 289.476 222.216 285.49 214.517 279.334C206.779 273.178 153.282 264.023 146.094 250.092C138.906 236.162 135.803 214.537 122.409 225.113Z" fill="#FFE461"/>
<path d="M229.443 282.924C229.443 282.924 295.902 280.833 294.842 289.001C293.781 297.17 293.899 298.63 270.686 298.63C247.472 298.63 212.985 289.83 229.443 282.924Z" fill="#FFE461"/>
<path d="M250.3 68.6826C250.3 68.6826 238.359 56.9622 225.476 62.0134C212.553 67.0646 205.405 80.5608 204.855 89.7555C204.305 98.9503 206.937 102.739 203.677 106.527C200.456 110.315 194.525 115.012 198.845 119.865C203.166 124.719 192.757 122.036 197.785 130.244C202.812 138.452 250.339 129.889 250.339 129.889C250.339 129.889 256.624 126.1 254.11 121.168C251.596 116.195 254.228 116.314 254.699 112.604C255.171 108.895 251.793 109.447 253.56 104.12C255.367 98.7924 261.18 87.4667 260.395 79.1796C259.531 70.853 250.3 68.6826 250.3 68.6826Z" fill="#252549"/>
<path d="M218.014 117.34C218.014 117.34 219.781 117.419 219.624 115.17C219.428 112.92 218.446 114.104 221.863 108.58C225.28 103.094 224.298 102.463 223.041 99.3847C221.784 96.3067 227.048 94.1757 230.151 89.7559C233.254 85.3361 237.142 79.8508 240.442 76.7727C243.741 73.6946 246.883 73.6157 248.69 74.5234C250.497 75.431 251.008 77.4041 251.008 77.4041C251.008 77.4041 250.576 96.9381 246.53 104.16C242.484 111.381 239.538 111.539 236.043 110.474C236.043 110.474 234.786 116.709 235.493 119.037C236.2 121.365 244.016 124.522 239.538 130.915C235.061 137.308 222.963 140.347 218.721 133.244C214.479 126.18 218.014 117.34 218.014 117.34Z" fill="#FFBF9F"/>
<path d="M361.143 274.397C361.143 274.397 371.866 276.804 375.754 278.778C379.643 280.79 384.71 281.461 387.066 278.067C389.423 274.674 388.991 272.306 392.88 269.188C396.768 266.071 405.488 261.454 404.113 258.178C402.739 254.903 399.793 255.613 397.357 258.06C394.883 260.506 383.531 262.519 381.45 263.545C379.368 264.532 372.298 264.611 370.805 264.611C369.313 264.611 362.203 262.006 362.203 262.006L361.143 274.397Z" fill="#FFBF9F"/>
<path d="M347.121 289.948C347.121 289.948 355.959 296.539 357.176 300.761C358.355 304.984 361.379 309.167 365.425 308.575C369.471 307.983 370.924 306.049 375.834 306.759C380.744 307.47 390.053 310.706 391.506 307.47C392.959 304.234 390.445 302.537 386.95 302.419C383.493 302.3 374.263 295.315 372.142 294.487C369.981 293.658 362.204 289.08 361.183 288.015C360.162 286.949 356.823 282.253 356.823 282.253L347.121 289.948Z" fill="#FFBF9F"/>
<path d="M366.406 276.214C365.817 277.595 365.267 278.582 364.914 278.976C363.539 280.555 356.508 275.977 356.115 275.74L356.155 275.78C356.626 276.293 360.475 280.397 361.143 282.923C361.811 285.646 346.61 292.986 343.743 293.538C340.875 294.091 320.058 264.888 320.058 264.888C320.058 264.888 296.373 257.667 293.702 256.443C292.406 255.851 280.661 255.812 268.878 255.97C256.309 256.128 243.661 256.443 243.661 256.443C243.661 256.443 237.376 254.273 231.092 251.747C224.807 249.222 201.201 242.197 201.201 242.197C201.201 242.197 196.645 238.606 196.645 224.163C196.645 209.759 204.54 195.75 204.54 195.75L216.402 196.618L250.81 199.104L309.453 212.443L315.737 216.034L334.905 245.394C334.905 245.394 341.975 247.919 349.792 250.958C358.943 254.549 369.117 258.929 369.902 260.903C371.041 263.704 368.37 271.834 366.406 276.214Z" fill="#3B345B"/>
<path d="M319.037 264.576L320.098 264.891C320.019 264.891 319.626 264.773 319.037 264.576ZM300.223 258.735L300.537 258.814C300.458 258.775 300.38 258.775 300.301 258.735C300.262 258.735 300.223 258.735 300.223 258.735Z" fill="#5D3C2E"/>
<path d="M244.566 225.11C244.566 225.11 270.215 232.489 284.748 235.37C299.281 238.251 304.113 244.368 305.37 252.497C306.234 258.022 303.523 258.929 301.717 258.929C301.049 258.929 300.499 258.811 300.303 258.771C300.381 258.811 300.46 258.811 300.538 258.85L318.999 264.612C319.628 264.809 319.981 264.928 320.06 264.928C319.588 264.336 298.889 237.541 297.475 236.12C296.061 234.66 244.566 225.11 244.566 225.11Z" fill="#26242F"/>
<path d="M334.945 245.437L356.116 275.704C356.431 275.902 361.615 279.295 363.972 279.295C364.365 279.295 364.718 279.216 364.915 278.98C365.268 278.585 365.779 277.598 366.407 276.217C362.99 274.363 359.887 272.074 357.923 269.311C354.506 264.497 351.757 257.157 349.832 251.001C342.055 247.962 334.945 245.437 334.945 245.437Z" fill="#26242F"/>
<path d="M202.577 199.816C200.221 204.985 196.686 214.496 196.686 224.203C196.686 238.607 201.242 242.238 201.242 242.238C201.242 242.238 224.848 249.262 231.133 251.788C237.417 254.313 243.702 256.484 243.702 256.484C243.702 256.484 256.31 256.168 268.919 256.01C248.926 253.366 222.177 243.54 214.361 228.031C210.433 220.218 212.318 209.366 215.186 200.526C209.137 200.289 204.109 200.052 202.577 199.816Z" fill="#26242F"/>
<path d="M260.788 177.482C260.788 177.482 264.009 189.282 265.187 189.716C266.365 190.15 270.058 190.623 270.058 190.623L272.375 176.18L270.804 174.01C270.804 174.049 259.177 171.918 260.788 177.482Z" fill="#FFBF9F"/>
<path d="M271.746 174.009C271.786 174.601 270.568 175.232 268.918 175.785C265.658 176.89 260.631 177.719 259.924 177.442C258.863 176.969 255.171 164.025 255.171 164.025C255.171 164.025 255.132 164.222 255.092 164.578V164.617C255.053 164.933 254.974 165.367 254.896 165.919C254.582 168.208 253.992 172.431 253.482 177.482C253.285 179.534 253.168 181.862 253.168 184.19C253.128 188.097 253.285 192.004 253.364 194.806C253.443 196.582 253.521 197.884 253.482 198.476C253.403 200.567 248.297 201.357 237.338 201.08C226.419 200.804 204.187 200.37 202.263 199.818C200.338 199.226 201.124 196.976 201.359 193.385C201.595 189.794 201.241 181.191 201.241 181.191C201.241 181.191 201.241 181.191 200.534 180.955C199.827 180.718 199.474 180.836 198.963 178.626C198.492 176.416 193.661 139.953 195.075 130.206C196.528 120.498 218.013 117.42 218.013 117.42C218.013 117.42 219.977 120.577 222.138 123.181C224.298 125.786 232.546 130.679 233.253 130.679C233.96 130.679 235.414 129.495 236.749 125.549C238.085 121.563 235.492 119.156 235.492 119.156C235.492 119.156 238.006 119.156 241.934 120.222C245.862 121.287 254.385 124.918 256.035 128.588C257.685 132.179 271.55 172.312 271.746 174.009Z" fill="#6776E8"/>
<path d="M254.857 165.88C254.543 168.168 253.954 172.391 253.443 177.442C253.247 179.494 253.129 181.822 253.129 184.151L254.857 165.88Z" fill="#7972D3"/>
<path d="M213.064 144.491C213.064 144.491 215.932 173.575 215.932 175.863C215.932 177.758 214.95 177.915 214.596 177.915C214.518 177.915 214.478 177.915 214.478 177.915C214.518 178.152 215.343 186.439 216.521 186.913C217.699 187.386 248.808 197.607 250.222 197.607C250.811 197.607 252.029 197.41 253.404 197.331C253.404 196.66 253.325 195.792 253.286 194.766C247.472 193.582 239.342 191.767 233.214 189.754C222.57 186.203 216.01 182.73 216.835 179.849C217.424 177.837 226.026 177.126 233.686 177.126C236.946 177.126 240.049 177.245 242.327 177.481C249.868 178.192 253.089 184.19 253.089 184.19C253.089 181.862 253.207 179.573 253.404 177.481C253.953 172.47 254.503 168.247 254.818 165.919L255.721 156.645C255.721 156.645 252.382 162.052 247.708 163.591C245.666 164.301 241.306 164.735 236.592 164.735C230.622 164.735 224.062 164.025 220.92 162.288C215.343 159.131 213.064 144.491 213.064 144.491Z" fill="#5350CD"/>
<path d="M201.242 181.191C201.281 181.704 201.438 186.163 201.438 189.833C201.438 191.175 201.399 192.398 201.359 193.306C201.242 195.042 201.006 196.502 201.006 197.568C201.006 198.712 201.281 199.422 202.263 199.738C203.755 200.212 217.739 200.567 228.972 200.804C223.591 199.856 217.935 198.87 214.282 197.804C206.151 195.397 204.345 193.937 203.402 191.411C202.459 189.044 201.32 181.822 201.242 181.191Z" fill="#5350CD"/>
<path d="M201.24 181.107C201.24 181.107 204.461 180.87 207.918 180.278C211.374 179.686 214.477 177.871 214.477 177.871C214.477 177.871 215.302 186.395 216.52 186.868C217.698 187.342 248.807 197.563 250.221 197.563C251.635 197.563 256.309 196.497 259.294 198.51C262.279 200.562 267.503 206.165 267.503 206.165C267.503 206.165 267.817 210.822 265.539 210.822C263.222 210.822 262.868 205.613 257.134 206.678C254.855 207.113 252.42 208.099 250.103 207.586C247.785 207.073 245.075 205.534 243.15 204.153C240.283 202.101 222.333 200.207 214.202 197.799C206.071 195.392 204.265 193.932 203.322 191.406C202.419 188.92 201.24 181.107 201.24 181.107Z" fill="#FFBF9F"/>
<path d="M250.85 140.069L255.759 156.604L255.052 164.536C255.092 164.18 255.131 163.983 255.131 163.983C255.131 163.983 258.823 176.966 259.884 177.4C259.962 177.44 260.159 177.44 260.394 177.44C261.926 177.44 266.05 176.69 268.878 175.743C267.896 175.585 266.482 175.348 264.715 175.072C260.63 174.362 258.273 164.496 258.273 159.721C258.273 155.065 251.321 140.976 250.85 140.069Z" fill="#5350CD"/>
<path d="M216.127 125.037C214.831 125.037 214.085 125.944 214.359 128.391C214.359 128.391 219.623 148.083 232.428 149.78C232.938 149.859 233.449 149.898 233.959 149.898C245.35 149.898 246.764 131.745 245.704 128.431C245.193 126.773 244.565 126.063 243.779 126.063C242.876 126.063 241.697 126.971 240.087 128.431C237.848 130.522 234.549 132.653 231.367 132.653C230.346 132.653 229.325 132.416 228.343 131.903C225.593 130.325 219.269 125.037 216.127 125.037Z" fill="#678EE7"/>
<path d="M356.156 275.782C356.628 276.295 360.477 280.399 361.145 282.924C358.395 279.412 356.431 276.255 356.156 275.782Z" fill="white"/>
<path d="M236.042 110.472C236.042 110.472 231.289 108.144 229.325 106.96C227.361 105.776 227.008 105.698 227.008 105.698C227.008 105.698 231.761 117.418 232.742 116.352C233.724 115.247 236.042 110.472 236.042 110.472Z" fill="#FF9B80"/>
<path d="M334.946 170.811L327.993 210.905L327.719 212.523C327.601 213.233 327.011 213.707 326.304 213.707H240.088C239.303 213.707 238.635 213.075 238.635 212.286C238.635 211.497 239.263 210.826 240.088 210.826H265.58C266.287 210.826 266.876 210.313 266.994 209.603L273.318 170.338C273.436 169.627 274.025 169.114 274.732 169.114H333.492C334.435 169.154 335.103 169.943 334.946 170.811Z" fill="#696B84"/>
<path d="M304.192 189.714C304.192 191.726 303.327 193.384 302.228 193.384C301.128 193.384 300.264 191.726 300.264 189.714C300.264 187.701 301.128 186.044 302.228 186.044C303.288 186.044 304.192 187.701 304.192 189.714Z" fill="#8186AA"/>
<path d="M276.538 169.156H274.771C274.064 169.156 273.475 169.669 273.357 170.379L272.414 176.22L272.178 177.64L267.583 206.211L267.033 209.644C266.915 210.355 266.326 210.868 265.619 210.868H240.127C239.342 210.868 238.674 211.499 238.674 212.328C238.674 213.117 239.302 213.748 240.127 213.748H326.344C327.051 213.748 327.64 213.275 327.758 212.564L328.033 210.947H273.003C271.236 210.947 269.9 209.329 270.175 207.592L276.538 169.156Z" fill="#535777"/>
<path d="M556.829 252.226V260.908C556.829 261.697 556.201 262.368 555.376 262.368H454.705C453.92 262.368 453.252 261.737 453.252 260.908V252.226C453.252 251.437 453.88 250.766 454.705 250.766H555.376C556.201 250.806 556.829 251.437 556.829 252.226Z" fill="#FF8A57"/>
<path d="M556.829 257.787V260.944C556.829 261.733 556.201 262.404 555.376 262.404H454.705C453.92 262.404 453.252 261.773 453.252 260.944V252.262C453.252 251.473 453.88 250.802 454.705 250.802H459.969V254.906C459.969 256.485 461.265 257.787 462.836 257.787H556.829Z" fill="#E25247"/>
<path d="M469.082 262.364L458.163 304.628C457.849 305.773 456.985 306.641 455.924 306.996C455.374 307.154 454.785 307.193 454.196 307.075C452.664 306.72 451.604 305.338 451.604 303.799C451.604 303.523 451.643 303.286 451.721 303.01L460.559 266.941L461.659 262.403H469.082V262.364Z" fill="#E25247"/>
<path d="M469.082 262.364L458.163 304.628C457.848 305.773 456.984 306.641 455.924 306.996C460.637 291.961 464.29 266.902 464.29 266.902H460.559L461.658 262.364H469.082Z" fill="#B2322B"/>
<path d="M539.391 262.364L550.31 304.628C550.624 305.773 551.488 306.641 552.549 306.996C553.099 307.154 553.688 307.193 554.277 307.075C555.809 306.72 556.87 305.338 556.87 303.799C556.87 303.523 556.83 303.286 556.752 303.01L547.914 266.941L546.814 262.403H539.391V262.364Z" fill="#E25247"/>
<path d="M539.391 262.364L550.31 304.628C550.624 305.773 551.488 306.641 552.549 306.996C547.835 291.961 544.183 266.902 544.183 266.902H547.914L546.814 262.364H539.391Z" fill="#B2322B"/>
<path d="M493.709 242.518C493.709 242.518 488.21 241.926 487.974 238.295C487.738 234.704 485.932 235.414 483.889 235.533C481.847 235.651 480.55 234.23 480.904 232.06C481.258 229.89 478.037 227.956 479.961 227.009C481.886 226.062 483.3 226.18 484.282 227.838C485.225 229.534 487.346 230.126 489.82 229.1C492.295 228.074 493.748 228.548 493.002 231.31C492.295 234.073 496.223 230.324 497.44 235.256C498.579 240.268 493.709 242.518 493.709 242.518Z" fill="#1D5B45"/>
<path d="M502.076 241.571C502.076 241.571 497.323 236.204 498.855 233.284C500.387 230.363 503.058 232.573 503.765 229.337C504.472 226.102 505.297 224.878 508.164 225.51C511.031 226.102 509.224 221.05 513.074 221.919C516.884 222.747 515.588 225.865 513.074 227.68C510.56 229.495 515.823 232.021 512.013 233.678C508.203 235.375 505.611 233.915 507.025 236.322C508.439 238.73 506.279 241.255 504.472 241.61C502.665 241.926 502.076 241.571 502.076 241.571Z" fill="#2C8443"/>
<path d="M496.223 240.347C496.223 240.347 491.667 239.045 493.12 235.059C494.573 231.113 488.564 231.113 490.017 227.956C491.47 224.838 490.253 223.733 488.957 222.786C487.66 221.839 489.664 219.313 492.61 220.497C495.555 221.681 493.042 226.377 496.734 226.969C500.426 227.561 500.937 229.731 500.072 231.665C499.248 233.599 504 234.072 503.765 237.308C503.529 240.584 496.223 240.347 496.223 240.347Z" fill="#6EAF45"/>
<path d="M510.914 244.803C510.914 245.434 510.796 246.026 510.639 246.618C509.893 249.065 507.615 250.801 504.944 250.801H491.314C488.015 250.801 485.344 248.118 485.344 244.803C485.344 242.277 486.876 240.146 489.075 239.239C489.782 238.963 490.529 238.805 491.314 238.805H504.944C508.243 238.805 510.914 241.488 510.914 244.803Z" fill="#C3C9E0"/>
<path d="M510.639 246.619C509.893 249.066 507.615 250.803 504.944 250.803H491.314C488.015 250.803 485.344 248.119 485.344 244.804C485.344 242.279 486.876 240.148 489.075 239.24C489.35 239.871 489.507 240.621 489.507 241.371C489.507 244.252 491.864 246.619 494.731 246.619H510.639Z" fill="#9EA9CC"/>
<path d="M354.166 94.4684H343.993C343.129 94.4684 342.422 93.7581 342.422 92.8899V79.3148C342.422 78.4466 343.129 77.7363 343.993 77.7363H354.166C355.03 77.7363 355.737 78.4466 355.737 79.3148V92.8899C355.737 93.7976 355.03 94.4684 354.166 94.4684Z" fill="white"/>
<path d="M347.906 86.5511C347.906 86.5111 347.916 86.4728 347.936 86.4361C347.959 86.3995 347.988 86.3728 348.021 86.3561C348.084 86.3928 348.166 86.4295 348.266 86.4661C348.369 86.4995 348.491 86.5161 348.631 86.5161C348.761 86.5161 348.883 86.4961 348.996 86.4561C349.113 86.4161 349.214 86.3511 349.301 86.2611C349.388 86.1711 349.456 86.0545 349.506 85.9111C349.556 85.7645 349.581 85.5861 349.581 85.3761C349.558 85.4028 349.524 85.4345 349.481 85.4711C349.438 85.5045 349.383 85.5378 349.316 85.5711C349.253 85.6011 349.179 85.6278 349.096 85.6511C349.013 85.6711 348.919 85.6811 348.816 85.6811C348.676 85.6811 348.541 85.6628 348.411 85.6261C348.281 85.5895 348.168 85.5328 348.071 85.4561C347.974 85.3795 347.896 85.2795 347.836 85.1561C347.779 85.0328 347.751 84.8828 347.751 84.7061C347.751 84.5495 347.778 84.4095 347.831 84.2861C347.888 84.1595 347.963 84.0528 348.056 83.9661C348.153 83.8795 348.264 83.8128 348.391 83.7661C348.521 83.7195 348.659 83.6961 348.806 83.6961C348.976 83.6961 349.133 83.7261 349.276 83.7861C349.423 83.8428 349.548 83.9328 349.651 84.0561C349.758 84.1761 349.839 84.3295 349.896 84.5161C349.956 84.7028 349.986 84.9245 349.986 85.1811C349.986 85.4878 349.953 85.7478 349.886 85.9611C349.823 86.1745 349.731 86.3478 349.611 86.4811C349.494 86.6145 349.353 86.7111 349.186 86.7711C349.019 86.8311 348.836 86.8611 348.636 86.8611C348.536 86.8611 348.441 86.8545 348.351 86.8411C348.264 86.8278 348.188 86.8078 348.121 86.7811C348.054 86.7545 348.001 86.7228 347.961 86.6861C347.924 86.6461 347.906 86.6011 347.906 86.5511ZM348.871 85.3461C348.954 85.3461 349.033 85.3361 349.106 85.3161C349.183 85.2928 349.253 85.2628 349.316 85.2261C349.379 85.1861 349.433 85.1428 349.476 85.0961C349.523 85.0461 349.558 84.9961 349.581 84.9461C349.574 84.6628 349.503 84.4395 349.366 84.2761C349.233 84.1128 349.046 84.0311 348.806 84.0311C348.619 84.0311 348.464 84.0895 348.341 84.2061C348.218 84.3228 348.156 84.4861 348.156 84.6961C348.156 84.8128 348.174 84.9128 348.211 84.9961C348.248 85.0761 348.298 85.1428 348.361 85.1961C348.428 85.2461 348.504 85.2845 348.591 85.3111C348.678 85.3345 348.771 85.3461 348.871 85.3461Z" fill="#8697BF"/>
<path d="M384.61 94.4684H374.436C373.572 94.4684 372.865 93.7581 372.865 92.8899V79.3148C372.865 78.4466 373.572 77.7363 374.436 77.7363H384.61C385.474 77.7363 386.181 78.4466 386.181 79.3148V92.8899C386.141 93.7976 385.434 94.4684 384.61 94.4684Z" fill="#8697BF"/>
<path d="M415.053 94.4684H404.88C404.016 94.4684 403.309 93.7581 403.309 92.8899V79.3148C403.309 78.4466 404.016 77.7363 404.88 77.7363H415.053C415.917 77.7363 416.624 78.4466 416.624 79.3148V92.8899C416.624 93.7976 415.917 94.4684 415.053 94.4684Z" fill="#8697BF"/>
<path d="M445.494 94.4684H435.321C434.457 94.4684 433.75 93.7581 433.75 92.8899V79.3148C433.75 78.4466 434.457 77.7363 435.321 77.7363H445.494C446.358 77.7363 447.065 78.4466 447.065 79.3148V92.8899C447.026 93.7976 446.319 94.4684 445.494 94.4684Z" fill="#8697BF"/>
</svg>
